<?xml version="1.0" encoding="iso-8859-1"?>
<!-- Uploaded to: SVG Repo, www.svgrepo.com, Generator: SVG Repo Mixer Tools -->
<svg fill="#000000" height="800px" width="800px" version="1.1" id="Capa_1" xmlns="http://www.w3.org/2000/svg" xmlns:xlink="http://www.w3.org/1999/xlink" 
	 viewBox="0 0 60 60" xml:space="preserve">
<g>
	<path d="M39,9c-3.222,0-6.266,0.751-8.997,2.054c-0.513-0.245-1.032-0.471-1.557-0.672c0.082-0.259,0.067-0.547-0.079-0.801
		l-1.5-2.598C26.59,6.504,25.978,6.341,25.5,6.617c-0.479,0.276-0.642,0.888-0.366,1.366l0.953,1.65C24.432,9.216,22.733,9,21,9
		C12.269,9,4.771,14.359,1.608,21.957l-0.003,0l-0.279,0.754c-0.017,0.045-0.027,0.091-0.044,0.136
		c-0.184,0.507-0.352,1.019-0.497,1.543c-0.034,0.12-0.062,0.241-0.093,0.362c-0.122,0.47-0.236,0.943-0.325,1.425
		c-0.049,0.257-0.08,0.516-0.118,0.774c-0.053,0.361-0.113,0.719-0.148,1.086C0.037,28.69,0,29.344,0,30
		c0,0.706,0.036,1.414,0.107,2.118c0.046,0.46,0.13,0.908,0.205,1.358c0.04,0.238,0.06,0.48,0.108,0.717l0.003,0.012
		c1.27,6.222,5.303,11.445,10.754,14.343l0.437,0.219c0.175,0.088,0.353,0.165,0.529,0.247c0.422,0.197,0.85,0.382,1.287,0.552
		c0.252,0.098,0.506,0.191,0.761,0.279c0.353,0.122,0.709,0.235,1.071,0.338c0.355,0.101,0.712,0.194,1.071,0.276
		c0.251,0.057,0.501,0.113,0.755,0.162c0.468,0.089,0.939,0.16,1.414,0.216c0.255,0.03,0.512,0.054,0.77,0.075
		c0.478,0.039,0.958,0.067,1.442,0.074l0.021,0C20.825,50.988,20.911,51,21,51c0.077,0,0.153-0.006,0.23-0.007l0.203,0.003
		l0.003-0.009c1.582-0.032,3.135-0.238,4.65-0.621l-0.953,1.65c-0.276,0.479-0.112,1.09,0.366,1.366
		c0.157,0.091,0.33,0.134,0.499,0.134c0.346,0,0.682-0.179,0.867-0.5l1.5-2.598c0.146-0.254,0.162-0.542,0.079-0.801
		c0.525-0.201,1.044-0.427,1.557-0.672C32.734,50.249,35.778,51,39,51c11.58,0,21-9.421,21-21S50.58,9,39,9z M27.545,47.817
		c0.06-0.04,0.123-0.074,0.173-0.125c0.023,0.014,0.044,0.031,0.067,0.045C27.705,47.767,27.624,47.787,27.545,47.817z
		 M27.589,12.396c-0.208,0.135-0.414,0.274-0.617,0.416c-0.431,0.3-0.852,0.611-1.256,0.94c-0.025,0.021-0.052,0.039-0.077,0.059
		c-0.498,0.409-0.968,0.845-1.423,1.294c-0.035,0.035-0.07,0.07-0.105,0.105c-0.069,0.069-0.139,0.136-0.206,0.205
		C23.963,15.288,24,15.149,24,15c0-0.552-0.448-1-1-1s-1,0.448-1,1c0,0.552,0.448,1,1,1c0.182,0,0.344-0.062,0.491-0.147
		c-1.208,1.317-2.236,2.779-3.066,4.351C20.174,20.386,20,20.667,20,21c0,0.009,0.005,0.016,0.005,0.025
		c-0.176,0.373-0.341,0.752-0.495,1.135C19.358,22.068,19.19,22,19,22c-0.552,0-1,0.448-1,1c0,0.511,0.389,0.917,0.885,0.977
		c-0.166,0.558-0.312,1.123-0.432,1.697c-0.01,0.048-0.023,0.095-0.032,0.143c-0.03,0.148-0.056,0.297-0.083,0.446
		C18.134,26.445,18,26.704,18,27c0,0.186,0.064,0.35,0.153,0.499c-0.007,0.062-0.011,0.125-0.018,0.188
		c-0.014,0.128-0.025,0.257-0.037,0.386C18.04,28.709,18,29.351,18,30c0,0.29,0.016,0.577,0.027,0.864
		C18.021,30.911,18,30.952,18,31c0,0.066,0.025,0.124,0.038,0.187c0.014,0.249,0.038,0.495,0.06,0.741
		c0.012,0.129,0.023,0.258,0.037,0.386c0.069,0.63,0.162,1.255,0.286,1.87c0.001,0.007,0.002,0.014,0.003,0.021
		C18.174,34.386,18,34.667,18,35c0,0.506,0.382,0.908,0.87,0.974c0.02,0.067,0.039,0.134,0.059,0.201
		c0.01,0.031,0.018,0.062,0.027,0.093c0.215,0.69,0.467,1.366,0.751,2.026C19.527,38.113,19.277,38,19,38c-0.552,0-1,0.448-1,1
		c0,0.552,0.448,1,1,1s1-0.448,1-1c0-0.024-0.012-0.044-0.014-0.068c0.186,0.395,0.384,0.785,0.594,1.167
		C20.24,40.258,20,40.599,20,41c0,0.552,0.448,1,1,1c0.235,0,0.442-0.094,0.613-0.23c0.172,0.252,0.345,0.504,0.527,0.749
		C22.059,42.664,22,42.822,22,43c0,0.552,0.448,1,1,1c0.108,0,0.208-0.03,0.306-0.062c0.242,0.271,0.491,0.536,0.748,0.795
		C24.029,44.82,24,44.906,24,45c0,0.552,0.448,1,1,1c0.121,0,0.235-0.029,0.342-0.069c0.1,0.085,0.195,0.174,0.296,0.258
		c0.025,0.021,0.052,0.039,0.077,0.059c0.13,0.106,0.267,0.205,0.4,0.308C26.047,46.691,26,46.838,26,47
		c0,0.552,0.447,0.999,0.998,1c-1.631,0.55-3.315,0.87-5.04,0.957C21.973,48.804,22,48.651,22,48.5c0-0.929-0.234-1.804-0.642-2.572
		C21.732,45.783,22,45.425,22,45c0-0.552-0.448-1-1-1c-0.339,0-0.624,0.18-0.805,0.438c-0.228-0.208-0.473-0.398-0.734-0.565
		C19.777,43.705,20,43.383,20,43c0-0.552-0.448-1-1-1s-1,0.448-1,1c0,0.08,0.028,0.151,0.045,0.225C17.555,43.081,17.037,43,16.5,43
		c-2.242,0-4.206,1.399-5.042,3.404c-4.28-2.499-7.489-6.617-8.797-11.514C5.692,34.34,8,31.687,8,28.5
		c0-2.798-1.818-5.246-4.386-6.135C6.561,15.682,13.24,11,21,11c2.34,0,4.614,0.424,6.784,1.264
		C27.717,12.306,27.655,12.353,27.589,12.396z"/>
	<path d="M39,52c-0.552,0-1,0.447-1,1v3c0,0.553,0.448,1,1,1s1-0.447,1-1v-3C40,52.447,39.552,52,39,52z"/>
	<path d="M39,8c0.552,0,1-0.447,1-1V4c0-0.553-0.448-1-1-1s-1,0.447-1,1v3C38,7.553,38.448,8,39,8z"/>
	<path d="M55.264,14.736c0.256,0,0.512-0.098,0.707-0.293l2.121-2.121c0.391-0.391,0.391-1.023,0-1.414s-1.023-0.391-1.414,0
		l-2.121,2.121c-0.391,0.391-0.391,1.023,0,1.414C54.752,14.639,55.008,14.736,55.264,14.736z"/>
	<path d="M33.306,51.25c-0.532-0.144-1.082,0.173-1.225,0.707l-0.777,2.898c-0.143,0.533,0.173,1.082,0.707,1.225
		c0.086,0.023,0.174,0.034,0.259,0.034c0.441,0,0.846-0.294,0.965-0.741l0.777-2.898C34.156,51.941,33.84,51.393,33.306,51.25z"/>
	<path d="M44.694,8.75c0.086,0.023,0.174,0.034,0.259,0.034c0.441,0,0.846-0.294,0.965-0.741l0.777-2.898
		c0.143-0.533-0.173-1.082-0.707-1.225c-0.531-0.144-1.082,0.174-1.225,0.707l-0.777,2.898C43.844,8.059,44.16,8.607,44.694,8.75z"
		/>
	<path d="M32.082,8.043c0.12,0.447,0.524,0.741,0.965,0.741c0.085,0,0.173-0.011,0.259-0.034c0.534-0.143,0.85-0.691,0.707-1.225
		l-0.777-2.898c-0.143-0.534-0.692-0.852-1.225-0.707c-0.534,0.143-0.85,0.691-0.707,1.225L32.082,8.043z"/>
	<path d="M45.918,51.957c-0.143-0.534-0.69-0.852-1.225-0.707c-0.534,0.143-0.85,0.691-0.707,1.225l0.777,2.898
		c0.12,0.447,0.524,0.741,0.965,0.741c0.085,0,0.173-0.011,0.259-0.034c0.534-0.143,0.85-0.691,0.707-1.225L45.918,51.957z"/>
	<path d="M51.366,49.419c-0.277-0.479-0.889-0.643-1.366-0.366c-0.479,0.276-0.642,0.888-0.366,1.366l1.5,2.598
		c0.186,0.321,0.521,0.5,0.867,0.5c0.169,0,0.342-0.043,0.499-0.134c0.479-0.276,0.642-0.888,0.366-1.366L51.366,49.419z"/>
	<path d="M50,10.947c0.157,0.091,0.33,0.134,0.499,0.134c0.346,0,0.682-0.179,0.867-0.5l1.5-2.598
		c0.276-0.479,0.112-1.09-0.366-1.366c-0.479-0.276-1.09-0.113-1.366,0.366l-1.5,2.598C49.358,10.06,49.521,10.671,50,10.947z"/>
	<circle cx="17" cy="21" r="1"/>
	<circle cx="19" cy="19" r="1"/>
	<circle cx="21" cy="17" r="1"/>
	<circle cx="13" cy="18" r="1"/>
	<circle cx="12" cy="35" r="1"/>
	<circle cx="25" cy="13" r="1"/>
	<circle cx="21" cy="13" r="1"/>
	<circle cx="19" cy="15" r="1"/>
	<circle cx="15" cy="27" r="1"/>
	<circle cx="17" cy="25" r="1"/>
	<circle cx="17" cy="29" r="1"/>
	<circle cx="15" cy="31" r="1"/>
	<circle cx="17" cy="33" r="1"/>
	<circle cx="17" cy="37" r="1"/>
	<circle cx="17" cy="41" r="1"/>
	<circle cx="23" cy="47" r="1"/>
</g>
</svg>